<?xml version="1.0" encoding="UTF-8" standalone="no"?>
<svg viewBox="0 0 200 200" xmlns="http://www.w3.org/2000/svg">
<path d="m188.5,100a88.5,88.5 0 1,0 -177,0 88.5,88.5 0 1,0 177,0" fill="none" stroke="#000" stroke-width="20"/>
<path d="m94.55518,91.95166c5.56982,0 9.55224-1.03516 11.94677-3.10742 2.44141-2.07031 3.66016-5.47754 3.66016-10.21875 0-4.69531-1.21875-8.05664-3.66016-10.08203-2.39453-2.02539-6.37695-3.03906-11.94677-3.03906h-11.18652v26.44727h11.18652m-11.18652,18.3667v39.01562h-26.58594v-103.09521h40.60351c13.58057,0 23.52393,2.2793 29.83252,6.83594 6.35156,4.55859 9.52734,11.76172 9.52734,21.61426 0,6.81348-1.65625,12.40723-4.9707,16.78027-3.26953,4.37305-8.2168,7.59521-14.8457,9.66553 3.63476.82812 6.88086,2.71679 9.73633,5.66406 2.89843,2.89844 5.82226,7.31836 8.76953,13.25781l14.43164,29.27734h-28.3125l-12.56836-25.61718c-2.53125-5.15625-5.10938-8.67969-7.73242-10.56641-2.57813-1.88672-6.03077-2.83203-10.35889-2.83203h-7.52637"/>
</svg>
