<?xml version="1.0" encoding="UTF-8" standalone="no"?>
<svg viewBox="0 0 3405.8621 3405.8621" xmlns="http://www.w3.org/2000/svg">
<path d="m3130.4631,1581.8636a1537.931,1537.931 0 1,1 -3075.86203,0 1537.931,1537.931 0 1,1 3075.86203,0z" fill="#fff" stroke="#000" stroke-width="330" transform="translate(110.399,121.068)"/>
<path d="m946.2832,737.89949h-2.67187l-2.43164-3.19922h-.78516v3.19922h-2.17969v-8.72461h3.50977c.48437,1e-005 .90624.03028 1.26562.09082s.6914.18653.9961.37793c.31249.19923.56054.45216.74414.75879s.27538.69629.27539,1.16894c-1e-005,.66798-.1504,1.20997-.45117,1.62598s-.70313.74707-1.20703.99316l2.93554,3.70899zm-3.52734-6.05274c-1e-005-.21874-.042-.40722-.12598-.56543s-.22364-.28026-.41894-.36621c-.13673-.05858-.28907-.09569-.45703-.11132s-.37696-.02344-.62696-.02344h-.73242v2.34961h.62695c.30469,0 .56348-.01855.77637-.05567s.39355-.1162.54199-.2373c.14062-.10937.24512-.24023.31348-.39258s.10253-.35156.10254-.59766z" fill="#2b0000" transform="matrix(194.1299,0,0,203.7122,-181160.094,-147769.35)"/>
</svg>
